<?xml version="1.0" encoding="utf-8"?>
<!-- Generator: Adobe Illustrator 16.0.0, SVG Export Plug-In . SVG Version: 6.00 Build 0)  -->
<!DOCTYPE svg PUBLIC "-//W3C//DTD SVG 1.1//EN" "http://www.w3.org/Graphics/SVG/1.1/DTD/svg11.dtd">
<svg version="1.1" id="Layer_1" xmlns="http://www.w3.org/2000/svg" xmlns:xlink="http://www.w3.org/1999/xlink" x="0px" y="0px"
	 width="343.329px" height="121.96px" viewBox="0 0 343.329 121.96" enable-background="new 0 0 343.329 121.96"
	 xml:space="preserve">
<g>
	<g>
		<path fill="#FFFFFF" d="M8.934,47.006c0-2.67,0-5.456,0-8.241c0-14.627,0.112-23.328,0.35-28.321
			c1.392-0.116,3.482-0.231,5.92-0.231c8.93,0,11.486,3.134,11.486,14.392l0.118,9.517c0,9.981-1.622,13.117-13.231,13.117
			C11.835,47.239,10.212,47.123,8.934,47.006z M0.46,80.664h8.709c0,0-0.123-9.051-0.235-25.067c0.81,0.113,2.084,0.229,3.479,0.229
			c8.943,0,13.353-2.438,16.598-5.803c2.791-2.67,7.08-9.287,7.08-21.473c0-11.023-3.83-18.571-7.193-21.936
			C25.185,2.785,20.771,0,11.14,0C4.987,0,0,0.233,0,0.233s0.812,19.382,0.812,45.611C0.812,64.531,0.46,80.664,0.46,80.664z"/>
		<path fill="#FFFFFF" d="M39.924,81.361h8.466c0,0-0.345-10.681-0.345-33.775c0-7.777,2.096-9.75,10.682-9.75l0.347-9.052
			c-4.644,0-8.474,1.043-11.258,3.018l0.575-7.775h-8.585c0,0,0.351,14.041,0.351,29.94C40.155,69.871,39.924,81.361,39.924,81.361z
			"/>
		<path fill="#FFFFFF" d="M62.093,80.664l8.468,0.348c0,0-0.693-11.952-0.693-28.784c0-15.435,0.693-28.55,0.693-28.55l-8.819,0.349
			c0,0,0.698,12.301,0.698,28.083C62.44,67.896,62.093,80.664,62.093,80.664z"/>
		<path fill="#FFFFFF" d="M91.226,82.289c4.758,0,8.121-1.51,10.91-4.293c3.016-3.021,5.104-7.549,5.45-14.508l-8.238-0.234
			c-0.469,10.795-2.207,12.188-7.777,12.188c-7.311,0-8.238-1.275-8.238-21.356v-1.159c0-18.571,1.391-20.314,8.591-20.314
			c6.612,0,7.307,0.929,7.424,18.802v0.234l8.36-0.349v-0.232c0-14.276-3.254-21.123-6.387-24.257
			c-2.32-2.44-4.292-3.717-8.821-3.717s-6.965,1.277-10.097,4.411c-4.644,4.53-7.774,14.277-7.774,26.811
			c0,15.323,3.246,20.89,6.727,24.375C83.795,81.125,87.97,82.289,91.226,82.289z"/>
		<path fill="#FFFFFF" d="M119.422,51.532v-2.554c0-14.972,1.629-16.943,8.012-16.943c6.385,0,7.893,2.667,7.893,14.971
			c0,2.321-0.231,4.643-0.231,4.643L119.422,51.532z M127.2,82.173c5.456,0,8.585-1.395,11.141-3.834
			c3.945-4.059,5.577-10.673,5.577-15.086l-8.708,0.35c0,9.402-1.851,11.838-7.775,11.838c-6.85,0-8.472-2.089-8.472-16.25
			l24.373,0.233c0,0,0.232-2.669,0.232-5.34c0-9.749-0.816-21.818-6.387-27.39c-1.854-1.859-4.643-3.714-8.47-3.714
			c-3.952,0-7.43,1.274-10.209,4.177c-4.067,3.945-8.009,13.813-8.009,27.739c0,12.421,1.742,18.917,4.873,22.166
			C118.382,80.079,121.743,82.173,127.2,82.173z"/>
		<path fill="#FFFFFF" d="M152.931,81.244l14.273-0.35c0,0,1.627-16.25,3.832-32.612c1.395-9.634,4.059-22.863,4.059-22.863h0.235
			c0,0,1.741,11.607,3.017,24.14c1.504,14.277,2.785,29.595,2.785,29.595l15.088,0.231c0,0,1.861-22.863,3.951-43.753
			C202.023,17.292,204.577,0,204.577,0H194.48c0,0-0.811,18.106-2.205,35.861c-1.28,16.949-3.598,34.01-3.598,34.01h-0.23
			c0,0-2.326-14.509-3.83-29.364c-1.511-14.975-2.671-30.41-2.671-30.41h-13.575c0,0-1.048,14.159-2.903,28.206
			c-1.973,15.548-4.995,31.449-4.995,31.449h-0.233c0,0-1.859-16.479-3.127-33.077c-1.163-17.294-1.977-35.285-1.977-35.285
			l-9.748,0.235c0,0,2.204,18.337,3.829,36.441C151.305,59.309,152.931,81.244,152.931,81.244z"/>
		<path fill="#FFFFFF" d="M218.737,73.236c-6.725,0-8.353-0.928-8.353-7.546c0-5.685,1.391-7.309,7.538-7.309
			c6.269,0,7.664,1.97,7.664,7.076v0.929C225.586,71.38,224.191,73.236,218.737,73.236z M218.16,79.968
			c2.895,0,5.571-0.814,7.543-2.322v5.108h7.428c0,0,0.352-14.507,0.352-36.327c0-12.072-2.324-16.251-4.535-18.457
			c-2.662-2.672-5.916-4.18-10.321-4.18c-3.603,0-6.968,1.741-8.823,3.601c-2.211,2.206-6.27,6.384-6.27,19.848l8.125,0.114
			c0-13.347,0.93-14.623,5.918-14.623c7.434,0,8.127,0.812,8.127,14.509v5.338c-2.096-1.393-4.297-1.975-7.78-1.975
			c-4.989,0-8.705,1.625-11.488,4.412c-2.783,2.787-4.292,6.15-4.292,10.326c0,4.18,1.509,7.666,3.715,9.866
			C209.104,78.574,212.467,79.968,218.16,79.968z"/>
		<path fill="#FFFFFF" d="M239.976,80.664l8.477,0.348c0,0-0.697-11.952-0.697-28.784c0-15.435,0.697-28.55,0.697-28.55
			l-8.824,0.349c0,0,0.692,12.301,0.692,28.083C240.321,67.896,239.976,80.664,239.976,80.664z"/>
		<path fill="#FFFFFF" d="M258.552,81.011l8.586-0.232c0,0-0.473-15.668-0.473-35.98c0-3.596,0.122-6.963,0.234-10.213l6.969-0.115
			l0.231-8.703h-6.962c0.578-10.562,1.275-17.643,1.275-17.643h-9.401c0,0,0.114,7.426,0.114,17.757l-7.195,0.115l-0.23,8.706
			l7.545-0.116c0,5.569,0,11.609,0,17.524C259.246,66.158,258.552,81.011,258.552,81.011z"/>
		<path fill="#FFFFFF" d="M282.689,51.532v-2.554c0-14.972,1.625-16.943,8.009-16.943s7.892,2.667,7.892,14.971
			c0,2.321-0.238,4.643-0.238,4.643L282.689,51.532z M290.466,82.173c5.458,0,8.59-1.395,11.143-3.834
			c3.945-4.059,5.57-10.673,5.57-15.086l-8.709,0.35c0,9.402-1.854,11.838-7.772,11.838c-6.853,0-8.474-2.089-8.474-16.25
			l24.373,0.233c0,0,0.232-2.669,0.232-5.34c0-9.749-0.816-21.818-6.385-27.39c-1.855-1.859-4.643-3.714-8.473-3.714
			c-3.947,0-7.422,1.274-10.215,4.177c-4.06,3.945-8.004,13.813-8.004,27.739c0,12.421,1.742,18.917,4.874,22.166
			C281.644,80.079,285.005,82.173,290.466,82.173z"/>
		<path fill="#FFFFFF" d="M311.355,81.361h8.472c0,0-0.347-10.681-0.347-33.775c0-7.777,2.087-9.75,10.678-9.75l0.354-9.052
			c-4.65,0-8.479,1.043-11.268,3.018l0.583-7.775h-8.587c0,0,0.347,14.041,0.347,29.94
			C311.586,69.871,311.355,81.361,311.355,81.361z"/>
		<path fill-rule="evenodd" clip-rule="evenodd" fill="#96C0E6" d="M279.943,100.179c-2.358-2.749-0.321,7.727-6.656,2.511
			c-9.117-15.714,26.681-7.661,11.168,13.751c-7.751,11.036-28.945,2.946-40.184-2.089c-3.307-1.483-12.817-9.121-13.719-9.166
			c-1.75-0.093-7.734,6.141-10.003,7.199c-7.351,3.426-32.392,9.923-42.288,2.747c-14.62-10.599,7.283-42.948,10.366-16.92
			c-2.335,3.162-8.358,1.99-10.802-0.4c6.502,31.41,26.243-13.609,43.691-11.35c3.977,0.514,5.826,5.589,8.438,5.722
			c2.582,0.134,7.195-4.89,8.843-5.077c17.642-2.027,24.913,27.852,34.755,28.337C278.402,115.68,284.839,105.979,279.943,100.179z"
			/>
		<path fill="#95BAE3" d="M65.829,17.984c3.46,0,5.608-2.39,5.608-6.091s-2.148-6.087-5.608-6.087c-3.463,0-5.607,2.386-5.607,6.087
			S62.366,17.984,65.829,17.984z"/>
		<path fill="#95BAE3" d="M243.808,17.841c3.463,0,5.612-2.39,5.612-6.086c0-3.703-2.149-6.091-5.612-6.091
			c-3.461,0-5.61,2.389-5.61,6.091C238.198,15.451,240.347,17.841,243.808,17.841z"/>
	</g>
	<g>
		<path fill="#FFFFFF" d="M338.232,27.262c-2.814,0-5.097-2.281-5.097-5.097c0-2.802,2.282-5.082,5.097-5.082
			c2.816,0,5.097,2.28,5.097,5.082C343.329,24.98,341.048,27.262,338.232,27.262z M338.232,18.025c-2.252,0-4.082,1.859-4.082,4.139
			c0,2.295,1.83,4.154,4.082,4.154s4.083-1.859,4.083-4.154C342.315,19.884,340.484,18.025,338.232,18.025z M340.809,24.854h-1.211
			l-1.015-1.957h-1.365v1.942h-1.055v-5.604h2.688c1.184,0,1.93,0.718,1.93,1.831c0,0.802-0.465,1.45-1.168,1.703L340.809,24.854z
			 M338.866,21.925c0.437,0,0.874-0.226,0.874-0.858c0-0.634-0.34-0.86-0.874-0.86h-1.647v1.718H338.866z"/>
	</g>
</g>
</svg>
